<svg width="512" height="512" viewBox="0 0 512 512" xmlns="http://www.w3.org/2000/svg">
  <circle cx="256" cy="256" r="256" fill="#FF8200"/>
  <g transform="translate(256, 256) scale(0.8) translate(-256, -256)">
    <path d="M400 120V320C400 364.18 364.18 400 320 400C275.82 400 240 364.18 240 320C240 275.82 275.82 240 320 240C331.36 240 341.96 242.36 352 246.52V160H200V352C200 396.18 164.18 432 120 432C75.82 432 40 396.18 40 352C40 307.82 75.82 272 120 272C131.36 272 141.96 274.36 152 278.52V100C152 82.33 166.33 68 184 68H368C385.67 68 400 82.33 400 100V120Z" fill="white"/>
  </g>
</svg>
